<!-- icon666.com - MILLIONS vector ICONS FREE --><svg viewBox="0 0 512 512" xmlns="http://www.w3.org/2000/svg"><path d="m96 464h32v48h-32zm0 0" fill="#57565c"></path><path d="m384 464h32v48h-32zm0 0" fill="#57565c"></path><path d="m480 348.960938v131.039062h-448v-131.039062l37.121094-92.960938h373.757812zm0 0" fill="#cfd8dc"></path><path d="m67.40625 0h384v256h-384zm0 0" fill="#d1944b"></path><path d="m468.480469 320h-424.960938l25.601563-64h373.757812zm0 0" fill="#b0bec5"></path><path d="m496 288h-480c-8.832031 0-16-7.167969-16-16s7.167969-16 16-16h480c8.832031 0 16 7.167969 16 16s-7.167969 16-16 16zm0 0" fill="#cfd8dc"></path><path d="m128 320h256v160h-256zm0 0" fill="#448aff"></path><path d="m208 384h32v32h-32zm0 0" fill="#fff"></path><path d="m272 384h32v32h-32zm0 0" fill="#fff"></path><path d="m451.40625 0h-112.765625l-1.535156 256h114.300781zm0 0" fill="#c98235"></path><path d="m144 0h128v144h-128zm0 0" fill="#ffd740" style="fill: rgb(51, 58, 255);"></path><path d="m32 448h448v32h-448zm0 0" fill="#b0bec5"></path><path d="m128 320h256v32h-256zm0 0" fill="#2979ff"></path></svg>