<!-- icon666.com - MILLIONS vector ICONS FREE --><svg enable-background="new 0 0 256 256" viewBox="0 0 256 256" xmlns="http://www.w3.org/2000/svg"><g id="Layer_15"><g><g><g><path d="m204.1 176.634c-.365-6.554-4.949-12.109-11.315-13.711l-20.578-5.179c-4.156-1.046-7.969-2.376-11.096-3.619-.054.529-.273 1.043-.678 1.448l-16.11 16.11c-.936.936-2.454.936-3.39 0l-7.365-7.365c-.936-.936-.936-2.454 0-3.39l14.533-14.533c-1.649-2.222-2.59-4.949-2.59-7.823v-6.186c-5.249 2.748-11.204 4.313-17.511 4.313s-12.261-1.565-17.511-4.313v6.186c0 2.873-.942 5.6-2.59 7.822l14.533 14.533c.936.936.936 2.454 0 3.39l-7.365 7.365c-.936.936-2.454.936-3.39 0l-16.11-16.11c-.402-.402-.621-.912-.677-1.437-3.273 1.332-6.79 2.523-11.098 3.608l-20.578 5.179c-6.365 1.602-10.95 7.158-11.315 13.711l-4.202 72.465c-.133 2.39 1.769 4.402 4.163 4.402h152.278c2.394 0 4.296-2.011 4.163-4.402z" fill="#edf4fc"></path></g></g><g><g><path d="m160.579 53.229c-2.485-2.607-6.526-2.846-9.359-.623-4.479 3.516-12.23 7.862-23.177 7.862-10.974 0-18.766-4.367-23.264-7.888-2.831-2.215-6.863-1.967-9.344.634l-.013.014c-3.485 3.655-5.43 8.512-5.43 13.562v31.9c0 20.905 17.104 38.009 38.009 38.009s38.009-17.104 38.009-38.009v-31.899c-.001-5.05-1.946-9.907-5.431-13.562z" fill="#f9d0b4"></path></g></g><g><g><path d="m168.448 69.722c-.83 0-1.644.07-2.439.193v28.775c0 .857-.039 1.706-.096 2.549.827.133 1.67.221 2.535.221 8.764 0 15.869-7.105 15.869-15.869s-7.105-15.869-15.869-15.869z" fill="#f9d0b4"></path></g></g><g><g><path d="m89.991 98.69v-28.774c-.796-.123-1.609-.193-2.439-.193-8.764 0-15.869 7.105-15.869 15.869s7.105 15.869 15.869 15.869c.865 0 1.707-.088 2.535-.221v-.001c-.057-.844-.096-1.692-.096-2.549z" fill="#f9d0b4"></path></g></g><g><g><path d="m165.867 37.301c-1.273 0-2.376-.982-2.394-2.254-.292-21.18-24.477-25.158-48.563-20.999-20.421 3.526-35.346 21.235-35.346 41.958v15.891c2.348-1.373 5.072-2.173 7.988-2.173.83 0 1.643.07 2.439.193v-3.125c0-5.05 1.944-9.907 5.43-13.562l.013-.014c2.481-2.601 6.513-2.85 9.344-.634 4.498 3.521 12.29 7.888 23.264 7.888 10.948 0 18.698-4.346 23.177-7.862 2.833-2.224 6.874-1.984 9.359.623 3.485 3.655 5.43 8.512 5.43 13.562v3.125c.796-.123 1.609-.193 2.439-.193 2.951 0 5.705.82 8.072 2.224v-13.05c.001-18.964-6.848-21.598-10.652-21.598z" fill="#5b5d60"></path></g></g><g><g><path d="m122.432 160.928-16.11-16.11c-.936-.936-2.454-.936-3.39 0l-7.365 7.365c-.936.936-.936 2.454 0 3.39l16.11 16.11c.936.936 2.454.936 3.39 0l7.365-7.365c.936-.936.936-2.454 0-3.39z" fill="#c18e6b"></path></g></g><g><g><path d="m160.432 152.182-7.365-7.365c-.936-.936-2.454-.936-3.39 0l-16.11 16.11c-.936.936-.936 2.454 0 3.39l7.365 7.365c.936.936 2.454.936 3.39 0l16.11-16.11c.936-.936.936-2.454 0-3.39z" fill="#c18e6b"></path></g></g><g><g><path d="m133.568 160.928 14.533-14.533c-1.649-2.222-2.59-4.949-2.59-7.823v-6.186c-5.249 2.748-11.204 4.313-17.511 4.313s-12.261-1.565-17.511-4.313v6.186c0 2.873-.942 5.6-2.59 7.822l14.533 14.533c.936.936.936 2.454 0 3.39l-5.201 5.201v4.575c3.34 1.326 6.971 2.067 10.769 2.067s7.429-.74 10.769-2.067v-4.575l-5.201-5.201c-.936-.935-.936-2.453 0-3.389z" fill="#f9d0b4"></path></g></g><g><g><path d="m204.1 176.634c-.365-6.554-4.949-12.109-11.315-13.711l-20.578-5.179c-4.156-1.046-7.969-2.376-11.096-3.619-.054.529-.273 1.043-.678 1.448l-16.11 16.11c-.936.936-2.454.936-3.39 0l-2.163-2.163v83.98h65.37c2.394 0 4.296-2.011 4.163-4.402z" fill="#a57453"></path></g></g><g><g><path d="m115.068 171.682c-.936.936-2.454.936-3.39 0l-16.11-16.11c-.402-.402-.621-.912-.677-1.437-3.273 1.332-6.79 2.523-11.098 3.608l-20.578 5.179c-6.365 1.602-10.95 7.158-11.315 13.711l-4.202 72.465c-.133 2.39 1.769 4.402 4.163 4.402h65.37v-83.981z" fill="#a57453"></path></g></g><g><g><path d="m140.457 106.813c-1.058-.886-2.636-.748-3.522.31-1.847 2.203-4.98 3.519-8.382 3.519s-6.535-1.315-8.382-3.519c-.886-1.058-2.463-1.197-3.521-.31s-1.197 2.463-.311 3.522c2.785 3.323 7.351 5.307 12.214 5.307 4.862 0 9.429-1.984 12.214-5.307.886-1.058.748-2.635-.31-3.522z" fill="#000000"></path></g></g><g><g><path d="m178.008 186.422c-1.381 0-2.5 1.119-2.5 2.5v63.891c0 1.381 1.119 2.5 2.5 2.5s2.5-1.119 2.5-2.5v-63.891c0-1.381-1.119-2.5-2.5-2.5z" fill="#000000"></path></g></g><g><g><path d="m77.992 186.422c-1.381 0-2.5 1.119-2.5 2.5v63.828c0 1.381 1.119 2.5 2.5 2.5s2.5-1.119 2.5-2.5v-63.828c0-1.381-1.119-2.5-2.5-2.5z" fill="#000000"></path></g></g><g><g><path d="m110.489 130.344c-1.381 0-2.5 1.119-2.5 2.5v5.728c0 2.16-.651 4.247-1.884 6.034-.784 1.136-.498 2.693.638 3.478.434.299.928.442 1.418.442.794 0 1.575-.377 2.06-1.081 1.812-2.625 2.769-5.693 2.769-8.873v-5.728c-.001-1.381-1.12-2.5-2.501-2.5z" fill="#000000"></path></g></g><g><g><path d="m149.884 144.589c-1.226-1.782-1.873-3.863-1.873-6.018v-5.759c0-1.381-1.119-2.5-2.5-2.5s-2.5 1.119-2.5 2.5v5.759c0 3.17.952 6.23 2.752 8.85.485.706 1.268 1.084 2.063 1.084.488 0 .981-.143 1.414-.44 1.137-.782 1.426-2.338.644-3.476z" fill="#000000"></path></g></g><g><g><path d="m210.799 248.954-4.203-72.459c-.427-7.688-5.732-14.116-13.2-15.997l-20.578-5.18c-3.284-.827-6.693-1.924-10.131-3.261-1.289-.5-2.736.138-3.236 1.424-.5 1.287.137 2.735 1.424 3.236 3.63 1.412 7.238 2.573 10.723 3.45l20.578 5.18c5.334 1.343 9.123 5.935 9.429 11.431l4.203 72.459c.025.463-.136.903-.454 1.24-.319.337-.75.522-1.214.522h-152.279c-.464 0-.895-.186-1.214-.522-.318-.337-.479-.777-.454-1.234l4.203-72.471c.306-5.491 4.095-10.083 9.429-11.426l20.578-5.18c3.878-.976 7.302-2.073 10.776-3.454 1.283-.51 1.91-1.963 1.4-3.246-.511-1.283-1.962-1.913-3.246-1.4-3.266 1.297-6.491 2.331-10.151 3.251l-20.578 5.18c-7.468 1.88-12.772 8.309-13.2 15.991l-4.203 72.471c-.102 1.822.56 3.628 1.814 4.954 1.255 1.327 3.021 2.087 4.846 2.087h152.277c1.825 0 3.592-.76 4.846-2.086 1.255-1.326 1.916-3.132 1.815-4.96z" fill="#000000"></path></g></g><g><g><circle cx="143.433" cy="87.023" r="4.596" fill="#000000"></circle></g></g><g><g><path d="m112.567 82.427c-2.538 0-4.596 2.058-4.596 4.596s2.058 4.596 4.596 4.596 4.596-2.058 4.596-4.596-2.058-4.596-4.596-4.596z" fill="#000000"></path></g></g><g><g><path d="m58.9 122.2c-3.1-.6-5.6-3-6.2-6.1 0-.1-.3-.1-.3 0-.6 3.1-3.1 5.5-6.2 6.1-.1 0-.1.2 0 .3 3.1.6 5.6 3 6.2 6.1 0 .1.3.1.3 0 .6-3.1 3.1-5.5 6.2-6.1.1-.1.1-.3 0-.3z" fill="#fc657e" style="fill: rgb(255, 255, 255);"></path></g></g><g><g><path d="m73 20.5h-2.4v-2.3c0-1.8-1.4-3.2-3.2-3.2-1.7 0-3.2 1.4-3.2 3.1v2.4h-2.3c-1.8 0-3.2 1.4-3.2 3.2-.1 1.7 1.3 3.2 3.2 3.2h2.3v2.3c0 1.8 1.4 3.2 3.2 3.2 1.7 0 3.2-1.4 3.2-3.1v-2.4h2.3c1.8 0 3.2-1.4 3.2-3.2 0-1.7-1.4-3.2-3.1-3.2z" fill="#70d6f9" style="fill: rgb(250, 250, 250);"></path></g></g><g><g><path d="m95.3 0c-1.878 0-3.4 1.522-3.4 3.4s1.522 3.4 3.4 3.4 3.4-1.522 3.4-3.4-1.522-3.4-3.4-3.4z" fill="#f5c84c" style="fill: rgb(255, 255, 255);"></path></g></g><g><g><path d="m219.3 177c-1.878 0-3.4 1.522-3.4 3.4s1.522 3.4 3.4 3.4 3.4-1.522 3.4-3.4-1.522-3.4-3.4-3.4z" fill="#b2e26d" style="fill: rgb(255, 255, 255);"></path></g></g><g><g><path d="m218.9 148.2c-4.5-.8-8-4.3-8.9-8.7 0-.2-.4-.2-.4 0-.9 4.4-4.4 7.9-8.9 8.7-.2 0-.2.3 0 .4 4.5.8 8 4.3 8.9 8.7 0 .2.4.2.4 0 .9-4.4 4.4-7.9 8.9-8.7.2-.1.2-.4 0-.4z" fill="#f5c84c" style="fill: rgb(255, 255, 255);"></path></g></g><g><g><g><path d="m162.389 51.504c-3.373-3.537-8.837-3.907-12.713-.864-4.259 3.343-11.47 7.329-21.634 7.329-10.186 0-17.435-4-21.723-7.356-3.872-3.029-9.329-2.652-12.708.892-3.946 4.139-6.12 9.568-6.12 15.288v31.897c0 22.336 18.172 40.509 40.509 40.509s40.509-18.172 40.509-40.509v-31.898c0-5.72-2.174-11.149-6.12-15.288zm1.12 47.186c0 19.58-15.929 35.509-35.509 35.509s-35.509-15.929-35.509-35.509v-31.898c0-4.428 1.683-8.632 4.751-11.851.863-.904 2.021-1.366 3.193-1.366.979 0 1.968.321 2.802.975 4.907 3.841 13.194 8.419 24.805 8.419 11.592 0 19.842-4.565 24.722-8.396 1.838-1.444 4.421-1.282 6.006.381 3.057 3.205 4.739 7.409 4.739 11.837z" fill="#000000"></path></g></g></g><g><g><path d="m168.448 67.223c-.456 0-.907.018-1.354.052-1.377.104-2.408 1.306-2.304 2.683.106 1.376 1.306 2.404 2.683 2.303.322-.024.646-.038.976-.038 7.371 0 13.368 5.997 13.368 13.369s-5.997 13.369-13.368 13.369c-.422 0-.855-.025-1.327-.078-1.375-.15-2.608.836-2.761 2.208s.836 2.608 2.208 2.761c.656.073 1.271.108 1.88.108 10.128 0 18.368-8.24 18.368-18.369-.001-10.128-8.241-18.368-18.369-18.368z" fill="#000000"></path></g></g><g><g><path d="m87.552 72.223c.433 0 .879.023 1.326.069 1.377.149 2.602-.859 2.742-2.232.141-1.374-.859-2.601-2.232-2.742-.616-.063-1.233-.095-1.836-.095-10.128 0-18.368 8.24-18.368 18.369s8.24 18.369 18.368 18.369c.591 0 1.19-.034 1.833-.104 1.372-.148 2.364-1.382 2.216-2.755-.149-1.373-1.372-2.368-2.755-2.216-.461.05-.885.074-1.294.074-7.371 0-13.368-5.998-13.368-13.369s5.997-13.368 13.368-13.368z" fill="#000000"></path></g></g><g><g><path d="m165.97 34.801c-.148-7.159-2.797-12.925-7.875-17.142-8.62-7.158-24.516-9.373-43.61-6.075-21.683 3.744-37.42 22.426-37.42 44.421v15.401c0 1.381 1.119 2.5 2.5 2.5s2.5-1.119 2.5-2.5v-15.401c0-19.555 13.992-36.165 33.271-39.494 17.649-3.047 32.071-1.227 39.565 4.995 3.95 3.281 5.993 7.848 6.072 13.573.034 2.604 2.229 4.722 4.894 4.722 5.181 0 8.152 6.961 8.152 19.099v12.6c0 1.381 1.119 2.5 2.5 2.5s2.5-1.119 2.5-2.5v-12.601c.001-20.821-8.126-24.054-13.049-24.098z" fill="#000000"></path></g></g><g><g><g><path d="m124.2 159.16-16.11-16.11c-.925-.925-2.154-1.435-3.463-1.435-1.308 0-2.538.51-3.462 1.434l-7.366 7.366c-1.908 1.909-1.908 5.015.001 6.925l16.11 16.11c.926.925 2.155 1.434 3.463 1.434 1.309 0 2.538-.51 3.462-1.435l7.366-7.365c1.907-1.908 1.907-5.015-.001-6.924zm-10.828 10.681-15.964-15.964 7.22-7.219 15.964 15.964z" fill="#000000"></path></g></g></g><g><g><g><path d="m162.2 150.415-7.364-7.364c-.925-.925-2.154-1.435-3.463-1.435-1.308 0-2.537.509-3.463 1.434l-16.111 16.11c-1.907 1.909-1.907 5.015.001 6.925l7.364 7.364c.925.925 2.154 1.435 3.463 1.435h.001c1.309 0 2.538-.509 3.462-1.434l16.111-16.111c1.907-1.908 1.907-5.015-.001-6.924zm-10.755-3.83c0 .001-.001.001-.001.001zm-8.817 23.257-7.22-7.219 15.964-15.964 7.22 7.219z" fill="#000000"></path></g></g></g><g><g><path d="m140.509 173.454c-.48-1.293-1.923-1.951-3.215-1.471-6.009 2.237-12.656 2.227-18.663-.028-1.294-.485-2.734.169-3.22 1.461-.485 1.293.17 2.734 1.462 3.219 3.579 1.344 7.323 2.025 11.127 2.025 3.772 0 7.486-.67 11.038-1.992 1.294-.48 1.952-1.919 1.471-3.214z" fill="#000000"></path></g></g><g><g><path d="m138.77 167.25c-1.381 0-2.5 1.119-2.5 2.5v82.583c0 1.381 1.119 2.5 2.5 2.5s2.5-1.119 2.5-2.5v-82.583c0-1.381-1.12-2.5-2.5-2.5z" fill="#000000"></path></g></g><g><g><path d="m117.23 167.241c-1.381 0-2.5 1.119-2.5 2.5v82.592c0 1.381 1.119 2.5 2.5 2.5s2.5-1.119 2.5-2.5v-82.592c0-1.381-1.119-2.5-2.5-2.5z" fill="#000000"></path></g></g></g></g></svg>