<!-- icon666.com - MILLIONS vector ICONS FREE --><svg id="filled_outline" viewBox="0 0 512 512" xmlns="http://www.w3.org/2000/svg" data-name="filled outline"><path d="m24 72h336v360h-336z" fill="#f6bb00"></path><path d="m360 72h128v360h-128z" fill="#eda600"></path><path d="m240 224v48l-32 24h-32l-32-24v-48z" fill="#639aff"></path><path d="m192 256 48-32-48-32-48 32z" fill="#517ef7"></path><path d="m144 72v80l24-16 24 16 24-16 24 16v-80z" fill="#fcd453"></path><path d="m488 64h-464a8.00008 8.00008 0 0 0 -8 8v360a8.00008 8.00008 0 0 0 8 8h464a8.00008 8.00008 0 0 0 8-8v-360a8.00008 8.00008 0 0 0 -8-8zm-336 16h80v57.05176l-11.56252-7.708a8.00131 8.00131 0 0 0 -8.875 0l-19.56248 13.04101-19.56252-13.041a8.00131 8.00131 0 0 0 -8.875 0l-11.56248 7.70799zm-120 0h104v72a7.99955 7.99955 0 0 0 12.43748 6.65625l19.56252-13.04102 19.56248 13.041a8.00131 8.00131 0 0 0 8.875 0l19.56252-13.041 19.5625 13.041a7.99956 7.99956 0 0 0 12.4375-6.65623v-72h104v344h-320zm448 344h-112v-344h112z"></path><path d="m192 336h40v16h-40z"></path><path d="m152 336h24v16h-24z"></path><path d="m208 368h48v16h-48z"></path><path d="m128 368h64v16h-64z"></path><path d="m139.2002 278.40039 32 24a8.00222 8.00222 0 0 0 4.7998 1.59961h32a8.00222 8.00222 0 0 0 4.7998-1.59961l32-24a8.00229 8.00229 0 0 0 3.2002-6.40039v-48a7.99943 7.99943 0 0 0 -3.5625-6.65625l-48-32a8.00131 8.00131 0 0 0 -8.875 0l-48 32a7.99946 7.99946 0 0 0 -3.5625 6.65625v48a8.00229 8.00229 0 0 0 3.2002 6.40039zm66.1333 9.59961h-26.667l-26.6665-20v-29.052l35.56248 23.70825a7.99891 7.99891 0 0 0 8.875 0l35.56252-23.70825v29.052zm-13.3335-86.38477 33.57764 22.38477-33.57764 22.38477-33.57764-22.38477z"></path></svg>