<!-- icon666.com - MILLIONS vector ICONS FREE --><svg clip-rule="evenodd" fill-rule="evenodd" image-rendering="optimizeQuality" shape-rendering="geometricPrecision" text-rendering="geometricPrecision" viewBox="0 0 173.397 173.397" xmlns="http://www.w3.org/2000/svg"><g id="Layer_x0020_1"><g id="_300652600"><path id="_300654016" d="m154.353 163.237h-135.308c-.9227 0-1.6712-.7485-1.6712-1.671l.0005-31.1754c0-14.7677 12.0134-26.7816 26.7814-26.7816l25.4034-.0001v-14.8862c0-.926.7481-1.6708 1.6707-1.6708.9267-.0001 1.671.745 1.671 1.671l.0006 16.5571c0 .9224-.7456 1.671-1.6716 1.671h-27.0738c-12.926 0-23.4401 10.5172-23.4401 23.4397l.0007 29.5042h131.966v-29.5043c0-12.9224-10.5138-23.4396-23.4366-23.4396h-27.0774c-.9228 0-1.6713-.7485-1.6713-1.671l.0005-16.5573c0-.926.7479-1.6708 1.6705-1.6708.923-.0001 1.6711.745 1.6711 1.671l.0007 14.886h25.4062c14.7675 0 26.7781 12.0141 26.7781 26.7818l.0006 31.1753c0 .9224-.7457 1.6711-1.6716 1.671z"></path><path id="_300653968" d="m96.6745 123.766c-.4042 0-.808-.1425-1.1285-.4385l-6.2941-5.7617c-.3446-.3133-.5398-.7588-.543-1.2219-.0037-.4665.188-.912.529-1.2288l11.7878-11.0533c.672-.6302 1.7301-.5953 2.3603.0767.6343.6753.5988 1.7302-.0732 2.3638l-10.4749 9.8172 3.77 3.4499 15.2523-15.6554c.64-.6615 1.6983-.6718 2.3596-.0278.6616.6441.6754 1.6989.0313 2.3604l-16.3789 16.8148c-.3274.3376-.763.5048-1.1977.5046z"></path><path id="_300653776" d="m83.0209 118.004c-.4113 0-.8222-.1496-1.146-.4524l-11.787-11.0497c-.6721-.6337-.7074-1.6884-.0772-2.3638.6341-.672 1.6883-.7067 2.3637-.0766l11.7885 11.0532c.6713.6299.7059 1.6884.0757 2.3603-.3302.3514-.7726.5291-1.2177.529z"></path><path id="_300653992" d="m47.6159 163.237c-.9228 0-1.6717-.7485-1.6717-1.671l.0001-25.6539c0-.9225.7485-1.6709 1.6711-1.6709.9232-.0001 1.6709.7484 1.6709 1.671l.0003 25.6538c0 .9224-.7487 1.6711-1.6707 1.671z"></path><path id="_300653608" d="m125.785 163.237c-.9258 0-1.6711-.7485-1.6711-1.671l.0004-25.6539c0-.9225.7446-1.6709 1.6706-1.6709.9229-.0001 1.671.7484 1.671 1.671l.0007 25.6538c0 .9224-.7491 1.6711-1.6716 1.671z"></path><path id="_300653512" d="m90.3799 118.004h-7.359c-.9228 0-1.6716-.7483-1.6716-1.6709 0-.9225.7484-1.671 1.671-1.671h7.3596c.9228 0 1.6709.7485 1.6709 1.671.0007.9225-.7484 1.671-1.6709 1.6709z"></path><path id="_300653368" d="m76.7231 123.766c-.4355 0-.8708-.167-1.1981-.5046l-16.3759-16.8149c-.6438-.6615-.6303-1.7162.0277-2.3603.6616-.644 1.7197-.63 2.3638.0279l15.2484 15.6553 3.7707-3.4499-10.4718-9.8172c-.6721-.6337-.7074-1.6884-.0772-2.3638.6341-.672 1.6883-.7067 2.3637-.0766l11.7885 11.0532c.3376.3166.5284.7624.5284 1.2288-.0028.4631-.2019.9087-.543 1.222l-6.2972 5.7614c-.3203.2962-.7246.4389-1.128.4387z"></path><path id="_300653344" d="m90.0807 128.403h-6.7606c-.6509 0-1.2467-.3828-1.5183-.9746l-3.4494-7.5163c-.383-.8389-.018-1.8311.8211-2.2174.8395-.3832 1.831-.0175 2.2176.8214l3.0013 6.545h4.616l3.0007-6.5451c.3871-.8389 1.3751-1.2043 2.2141-.8213.8393.3862 1.2081 1.3785.8215 2.2175l-3.446 7.5162c-.2718.5918-.8672.9748-1.518.9746z"></path><path id="_300653104" d="m92.6781 163.237c-.8671 0-1.602-.6719-1.6648-1.5492l-2.6003-34.8342c-.0696-.919.6195-1.7196 1.542-1.7893.9192-.0696 1.7199.6232 1.7895 1.5423l2.6013 34.8339c.0688.9192-.6239 1.7234-1.543 1.7896-.0417.0034-.0834.007-.1247.0069zm-11.9554 0c-.0416 0-.0836-.0034-.1255-.0069-.9218-.0663-1.6118-.8703-1.5421-1.7894l2.5974-34.8342c.0696-.919.8734-1.6048 1.7925-1.5422.9192.0696 1.6118.8704 1.5424 1.7894l-2.6002 34.834c-.0667.8774-.7977 1.5494-1.6645 1.5493z"></path><path id="_300652744" d="m75.0344 13.502c-10.736 0-19.4713 8.7347-19.4713 19.4712v26.8442c0 17.1664 13.967 31.1336 31.137 31.1336 17.1666 0 31.137-13.967 31.137-31.1335l.0006-26.8444c0-10.7365-8.7354-19.471-19.4718-19.471zm11.6664 80.7911c-19.0122 0-34.4797-15.4675-34.4797-34.4756l.0005-26.8444c0-12.5781 10.2345-22.8131 22.8125-22.8131l23.3323-.0001c12.5782 0 22.8091 10.2352 22.8091 22.8133l.0005 26.8442c0 19.0081-15.4645 34.4757-34.4752 34.4757z"></path><path id="_300653176" d="m53.8924 47.8069c-.7378 0-1.4137-.4907-1.6122-1.2392-.2395-.8913.289-1.8068 1.1803-2.047 7.9828-2.1446 25.1455-14.8618 25.316-14.9906.3905-.289.8912-.3969 1.3646-.2889.4743.1077.881.4177 1.1072.8459 6.7676 12.7206 38.023 14.3639 38.3363 14.3779.9232.0452 1.6362.8286 1.5909 1.7511-.0449.9224-.839 1.6153-1.7476 1.5875-1.3123-.0629-31.0185-1.6363-40.1257-14.5207-4.4417 3.2097-17.7373 12.5189-24.975 14.4649-.1457.0418-.2924.0592-.4348.0591z"></path><path id="_300652984" d="m51.024 69.3423c-.7904 0-1.466-.1809-1.957-.3758-3.241-1.2673-5.685-5.7024-5.685-10.3116.0001-5.8419 3.3769-10.4162 7.6868-10.4162 1.3581-.0001 2.6874.477 3.8468 1.3751.7314.564.8632 1.6154.2995 2.3429-.5676.7312-1.6154.8634-2.3465.2995-.5742-.4492-1.1802-.6754-1.7998-.6754-2.3532-.0001-4.3447 3.2411-4.3447 7.0741.0004 3.147 1.6327 6.4438 3.5615 7.2027.3483.1357 1.4063.5501 2.945-1.1139.6274-.679 1.685-.7207 2.3639-.094.676.6265.7171 1.6849.0904 2.3637-1.6813 1.8173-3.3385 2.329-4.6609 2.3289z"></path><path id="_300652888" d="m122.377 69.3423c-1.3261 0-2.9801-.5081-4.6617-2.3289-.6263-.6789-.5849-1.7371.0905-2.3637.679-.6268 1.7338-.5849 2.3604.094 1.5427 1.664 2.6004 1.2497 2.9485 1.1139 1.9295-.759 3.5616-4.0557 3.5616-7.2027.0002-3.8332-1.9914-7.0741-4.3448-7.0741-.6195-.0001-1.2253.2262-1.8032.6754-.7275.5638-1.7789.4317-2.343-.2995-.5637-.7275-.4317-1.7789.296-2.3429 1.1628-.8982 2.4924-1.3751 3.8502-1.3751 4.3106-.0001 7.6868 4.5744 7.6868 10.4162.0006 4.6091-2.4439 9.0444-5.6851 10.3116-.4937.1949-1.1662.3759-1.9562.3758z"></path></g><path d="m101.59 87.1541c8.023-4.3871 13.9153-12.2029 15.6909-21.4627.0093-.0837.0248-.1669.0466-.2486.3345-1.825.5093-3.7052.5093-5.6253l.0002-8.8068c-.0023-.0507-.0023-.1014 0-.152l.0001-3.1581c-6.496-.4941-30.5111-3.0656-38.5352-14.4177-4.1994 3.0346-16.3133 11.5216-23.7391 14.083v3.5033c.0018.0443.0018.0888 0 .1332v8.815c0 1.9188.1745 3.7977.5085 5.6215.0227.0843.0387.1701.0481.2566 1.7763 9.2583 7.6673 17.0727 15.6896 21.459.1478.0543.2856.1289.4101.2203 4.3282 2.283 9.2562 3.5762 14.4807 3.5762 5.2231 0 10.1504-1.293 14.4783-3.5757.1251-.0919.2636-.1668.4119-.2212z" fill="#ffe0b2"></path><path d="m81.2483 30.0871c5.835 10.9677 29.874 13.7007 36.5891 14.2546l.0003-11.3686c0-10.7365-8.7354-19.471-19.4718-19.471l-23.3315-.0001c-10.736 0-19.4713 8.7347-19.4713 19.4712v10.8322c8.5445-3.4035 23.0567-14.1569 23.2134-14.2753.3905-.289.8912-.3969 1.3646-.2889.4743.1077.881.4177 1.1072.8459z" fill="#bac2c6"></path><g fill="#ffe0b2"><path d="m52.2211 59.8175.0001-7.9672c-.3756-.1794-.7613-.2695-1.1524-.2695-2.3532-.0001-4.3447 3.2411-4.3447 7.0741.0004 3.147 1.6327 6.4438 3.5615 7.2027.303.1181 1.1433.4471 2.3699-.5652-.2859-1.7835-.4344-3.6122-.4344-5.4749z"></path><path d="m121.176 51.8514.0001 7.966c0 1.8625-.1485 3.6911-.4342 5.4744 1.2296 1.013 2.0698.684 2.3727.5658 1.9295-.759 3.5616-4.0557 3.5616-7.2027.0002-3.8332-1.9914-7.0741-4.3448-7.0741-.3918-.0001-.7781.0904-1.1554.2706z"></path><path d="m100.497 91.4115c-4.2266 1.8529-8.8934 2.8816-13.7961 2.8816-4.9043 0-9.5727-1.0292-13.8006-2.8829l.0005 13.1449 10.7795 10.1072h6.0404l10.7759-10.1045z"></path></g><path d="m80.5597 116.319-9.9928-9.3682h-6.2628l12.4849 12.8181 1.9139-1.7511c.0263-.0257.0535-.0507.0826-.0756z" fill="#95c196"></path><path d="m83.669 118.004-1.77 1.62 2.4934 5.437h4.616l2.4925-5.437-1.7699-1.62z" fill="#e57373"></path><path d="m84.8718 128.403-2.3508 31.492h8.3585l-2.3509-31.492z" fill="#e57373"></path><path d="m94.6943 118.018 1.9136 1.7511 12.4881-12.8181h-6.2623l-9.9958 9.3682 1.7762 1.6254c.0276.0237.0544.0481.0802.0734z" fill="#95c196"></path><path d="m113.76 106.951-15.8873 16.3101c-.3274.3376-.763.5048-1.1977.5046-.4042 0-.808-.1425-1.1285-.4385l-1.456-1.3328-2.3132 5.0453 2.4536 32.8552h29.8834l.0004-23.9828c0-.9225.7446-1.6709 1.6706-1.6709.9229-.0001 1.671.7484 1.671 1.671l.0007 23.9827h25.2253v-29.5043c0-12.9224-10.5138-23.4396-23.4366-23.4396z" fill="#a5d6a7"></path><path d="m75.525 123.261-15.8843-16.3101h-15.4854c-12.926 0-23.4401 10.5172-23.4401 23.4397l.0007 29.5042h25.2283l.0001-23.9828c0-.9225.7485-1.6709 1.6711-1.6709.9232-.0001 1.6709.7484 1.6709 1.671l.0003 23.9827h29.8838l2.4503-32.8614-2.3127-5.0394-1.4569 1.3329c-.3203.2962-.7246.4389-1.128.4387-.4355 0-.8708-.167-1.1981-.5046z" fill="#a5d6a7"></path></g></svg>